<svg width="200" height="200" viewBox="0 0 200 200" fill="none" xmlns="http://www.w3.org/2000/svg">
<rect width="200" height="200" fill="black"/>
<path d="M69.0612 80.6575H147.754C155.483 80.6575 161.74 74.5615 161.74 67.0312H69.0612C49.8588 67.0312 34.25 81.8176 34.25 100C34.25 118.182 49.8588 132.969 69.0612 132.969H141.974C152.322 132.969 160.982 125.417 161.696 115.757C162.086 110.547 160.289 105.59 156.63 101.751C153.058 98.0172 147.993 95.8446 142.775 95.8024L106.947 95.5704V96.0977C106.903 103.333 112.878 109.239 120.304 109.281L142.689 109.429C144.182 109.429 145.59 110.083 146.564 111.222C147.538 112.361 147.928 113.858 147.646 115.314C147.213 117.613 144.918 119.343 142.299 119.343H69.0612C57.5874 119.343 48.2568 110.673 48.2568 100C48.2568 89.3268 57.5874 80.6575 69.0612 80.6575Z" fill="#F1F1F1"/>
</svg>
