<svg width="142" height="36" viewBox="0 0 142 36" fill="none" xmlns="http://www.w3.org/2000/svg">
<path d="M37.4948 8.83333C37.4948 9.25 37.2448 9.66667 37.2448 9.66667L36.8281 10.5C36.8281 10.8333 36.8281 11.1667 36.6615 11.3333L35.9948 13.1667C35.7448 14 35.4115 15.0833 35.1615 15.5C35.1615 15.8333 34.6615 17.1667 34.3281 18.3333L33.4948 20.8333L33.0781 22L32.4115 23.9167L31.8281 25.5C31.8281 26.0833 31.4948 26.75 31.4115 26.9167V27.3333L31.2448 27.6667L31.0781 28H35.7448L36.1615 26.8333L36.8281 25.1667C36.8281 24.75 37.0781 24.5 37.0781 24.3333H43.9115V24.75C44.0781 24.9167 44.3281 25.5833 44.4948 26.1667C44.4948 26.75 44.8281 27.4167 44.8281 27.5833L44.9948 27.9167H50.9948L50.4948 26.6667L44.1615 8.41667L43.9948 8H37.6615L37.3281 8.83333H37.4948ZM40.6615 14.5C40.6615 14.5 40.6615 14.9167 40.8281 15.1667L41.3281 16.8333L41.5781 17.5L41.8281 18.3333V18.75C41.9948 18.75 42.3281 19.5833 42.3281 19.8333H38.3281L38.7448 18.6667L39.1615 17.1667L40.3281 13.8333C40.3281 13.5833 40.3281 13.6667 40.4948 13.8333C40.4948 14.0833 40.4948 14.3333 40.6615 14.5ZM44.9115 8L48.2448 18L51.5781 28H54.9115C57.4115 28 58.2448 28 58.2448 27.8333C58.4115 27.8333 58.4948 27.4167 58.6615 27C58.6615 26.5833 58.9948 26 59.0781 25.6667L59.6615 24L60.1615 22.3333L60.9948 19.8333L61.9948 17.0833L62.6615 14.9167L63.4948 12.4167L64.3281 9.91667L64.9115 8.41667V8H59.4115V8.41667L58.9948 9.41667L58.4948 10.5L58.2448 11.3333C58.2448 11.75 57.9948 12.1667 57.9115 12.1667C57.9115 12.5 57.7448 13 57.5781 13.25L56.7448 15.75L55.7448 18.5L55.1615 20.1667V20.75H54.9948L54.3281 19.3333V18.8333L53.7448 17.5833V17.3333L53.3281 16.25C53.3281 15.8333 53.0781 15.5833 53.0781 15.4167L52.4115 13.5L52.1615 12.6667C51.6615 11.5 51.1615 10.1667 51.0781 9.66667V9.25C50.9115 9.25 50.8281 8.91667 50.7448 8.58333L50.5781 8H45.0781H44.9115ZM65.7448 8.16667C65.7448 8.58333 59.0781 27.8333 59.0781 27.8333H63.6615L64.2448 26.1667L64.8281 24.25H71.4948L72.1615 25.9167L72.7448 27.9167H75.7448L78.7448 27.75V27.5L78.9948 26.8333L79.4948 25.1667L79.9115 24.0833H86.5781L86.8281 24.6667L87.4948 26.5833L87.9115 27.8333H102.911C103.078 27.8333 103.578 26.5 103.911 25.5C103.911 25.25 103.911 25.0833 104.078 25L104.495 23.6667H97.4115C97.4115 23.5 100.578 20.3333 105.328 15.5L107.828 12.8333L108.661 10.3333L109.495 8H95.1615L94.4948 10L93.8281 12.0833H101.828L101.411 12.5L99.1615 14.6667L97.4948 16.3333C97.3281 16.3333 96.0781 17.6667 94.5781 19.1667L91.8281 21.8333L91.5781 21.25C91.5781 20.8333 91.3281 20.4167 91.3281 20.4167L90.9948 19.3333L90.4115 17.6667L90.0781 16.8333C90.0781 16.5833 89.6615 15.75 89.2448 14.75L88.9115 13L88.4948 12.1667L87.6615 9.83333C87.6615 9.58333 87.6615 9.33333 87.4948 9.25C87.4948 9.25 87.4948 8.91667 87.2448 8.58333L87.0781 8H80.8281V8.25L80.1615 10.0833C79.9948 10.5 79.6615 11.5833 79.3281 12.1667C79.3281 12.5 78.9948 13.5833 78.6615 14.5L77.8281 16.75L77.6615 17.5833L77.4948 17.9167L77.0781 19.0833L76.6615 20.4167L76.4948 20.75C76.4948 20.75 75.4115 18 74.3281 14.4167L71.8281 8H65.6615V8.16667H65.7448ZM69.3281 16.75C69.8281 18.4167 70.1615 19.75 70.3281 19.8333H66.2448C66.2448 19.8333 68.3281 13.6667 68.4948 13.8333L69.3281 16.9167V16.75ZM83.6615 14.25L83.8281 14.9167V15.1667L83.9948 15.5C83.9948 15.6667 83.9948 15.8333 84.1615 15.8333V16.3333C84.3281 16.5 84.4115 16.8333 84.4948 17.1667L84.7448 17.8333C84.7448 18.0833 84.7448 18.25 84.9115 18.25L85.3281 19.9167H81.3281V19.6667L81.8281 18.3333L82.8281 15.3333V15.1667L82.9948 14.9167C82.9948 14.5 83.4115 13.5833 83.4115 13.6667L83.5781 14.1667L83.6615 14.25Z" fill="#0D0D0D"/>
</svg>
