<svg width="184" height="36" viewBox="0 0 184 36" fill="none" xmlns="http://www.w3.org/2000/svg">
<path d="M66.2087 18.764H63.8037C62.655 18.764 61.9419 19.4806 61.9419 20.3252C61.9419 21.1879 62.5804 21.6952 63.7046 21.6952C64.9335 21.6952 65.7498 21.1186 66.2087 20.6438V18.764ZM66.2087 24.0189C64.9637 24.6565 64.1705 25.0708 62.7208 25.0708C59.943 25.0708 58.1406 23.1271 58.1406 20.5776C58.1406 17.7122 60.5193 15.9803 63.2703 15.9803H66.2087V15.5066C66.2087 14.1437 65.2737 13.4348 64.1843 13.4348C62.7367 13.4348 61.1504 13.9615 60.4009 14.2464C60.2849 14.2904 60.1582 14.284 60.0475 14.2312C59.937 14.1772 59.8534 14.0806 59.8169 13.9639L59.107 11.6977C59.0387 11.4786 59.1485 11.2442 59.3616 11.1549C60.167 10.8223 62.1273 10.0879 63.7593 10.0879C67.9443 10.0879 69.9783 11.7902 69.9783 15.7732V24.4784C69.9783 24.724 69.7791 24.9228 69.5331 24.9228H66.8281C66.6356 24.9228 66.4651 24.7995 66.4044 24.6161L66.2087 24.0189Z" fill="#0D0D0D"/>
<path d="M75.637 24.9228C75.8824 24.9228 76.0815 24.7239 76.0815 24.4784V14.5739C76.9142 13.9819 77.7837 13.5825 78.7083 13.5825C79.7183 13.5825 80.237 14.346 80.237 15.7435V24.4784C80.237 24.7239 80.4362 24.9228 80.6827 24.9228H83.5624C83.8084 24.9228 84.0081 24.7239 84.0081 24.4784V15.2108C84.0081 12.1058 82.3598 10.0879 79.5248 10.0879C78.3181 10.0879 77.2203 10.416 76.0815 11.139L75.9088 10.5548C75.8526 10.3654 75.6783 10.2358 75.4814 10.2358H72.7568C72.5107 10.2358 72.3125 10.4345 72.3125 10.6799V24.4784C72.3125 24.7239 72.5107 24.9228 72.7568 24.9228H75.637Z" fill="#0D0D0D"/>
<path d="M112.734 22.9724C112.734 21.8673 113.631 20.9473 114.791 20.9473C115.978 20.9473 116.874 21.8673 116.874 22.9724C116.874 24.1292 116.084 25.129 114.818 25.129C113.631 25.129 112.734 24.1556 112.734 22.9724Z" fill="#0D0D0D"/>
<path d="M126.48 19.5334C126.48 20.6786 125.55 21.606 124.402 21.606C123.255 21.606 122.324 20.6786 122.324 19.5334V15.6548C122.324 14.51 123.255 13.5826 124.402 13.5826C125.55 13.5826 126.48 14.51 126.48 15.6548V19.5334ZM124.398 10.0879C121.133 10.0879 118.555 11.9235 118.555 15.4769V19.6819C118.555 23.2352 121.142 25.0708 124.406 25.0708C127.672 25.0708 130.25 23.2352 130.25 19.6819V15.4769C130.25 11.9235 127.664 10.0879 124.398 10.0879Z" fill="#0D0D0D"/>
<path d="M103.833 16.3146V15.6548C103.833 14.51 104.763 13.5826 105.911 13.5826C107.059 13.5826 107.989 14.51 107.989 15.6548V16.3146H103.833ZM105.907 10.0879C102.641 10.0879 100.062 11.9235 100.062 15.4769V19.6819C100.062 23.2352 102.65 25.0708 105.915 25.0708C107.408 25.0708 109.328 24.8384 110.15 24.7283C110.377 24.6975 110.545 24.4999 110.535 24.2697L110.435 21.786C110.429 21.6631 110.374 21.5477 110.279 21.466C110.187 21.3883 110.063 21.3482 109.941 21.362C109.155 21.4481 107.51 21.606 105.911 21.606C104.763 21.606 103.833 20.6787 103.833 19.5337V19.2462H111.314C111.56 19.2462 111.758 19.0468 111.758 18.8009V15.4769C111.758 11.9235 109.173 10.0879 105.907 10.0879Z" fill="#0D0D0D"/>
<path d="M91.4863 20.9847C90.476 20.9847 89.9571 20.2212 89.9571 18.8227V15.7435C89.9571 14.346 90.476 13.5826 91.4863 13.5826C92.4109 13.5826 93.2812 13.9819 94.1129 14.5739V19.9931C93.2812 20.5861 92.4109 20.9847 91.4863 20.9847ZM94.7037 10.2359C94.5109 10.2359 94.3391 10.3593 94.2798 10.5414L94.0831 11.1391C92.9449 10.4161 91.877 10.0879 90.6699 10.0879C87.8352 10.0879 86.1875 12.1058 86.1875 15.2108V19.3558C86.1875 22.4613 87.8352 24.4784 90.6699 24.4784C91.877 24.4784 92.9747 24.1506 94.1129 23.4275V24.4631C94.1129 25.6077 93.183 26.5362 92.035 26.5362C90.4369 26.5362 88.7916 26.3787 88.006 26.2912C87.8837 26.278 87.7601 26.3155 87.6664 26.3961C87.5729 26.4767 87.5169 26.5918 87.5115 26.7158L87.4114 29.1995C87.4019 29.4291 87.5691 29.6265 87.7973 29.6575C88.6183 29.767 90.5376 30.0006 92.0307 30.0006C95.2965 30.0006 97.8832 28.1651 97.8832 24.6113V24.2703V20.8968V10.68C97.8832 10.4345 97.6836 10.2359 97.4383 10.2359H94.7037Z" fill="#0D0D0D"/>
<path d="M147.204 20.9847C146.195 20.9847 145.676 20.2212 145.676 18.8227V15.7435C145.676 14.346 146.195 13.5826 147.204 13.5826C148.13 13.5826 149 13.9819 149.832 14.5739V19.9931C149 20.5861 148.13 20.9847 147.204 20.9847ZM150.422 10.2359C150.229 10.2359 150.058 10.3593 149.999 10.5414L149.802 11.1391C148.663 10.4161 147.596 10.0879 146.388 10.0879C143.553 10.0879 141.906 12.1058 141.906 15.2108V19.3558C141.906 22.4613 143.553 24.4784 146.388 24.4784C147.596 24.4784 148.692 24.1506 149.832 23.4275V24.4631C149.832 25.6077 148.901 26.5362 147.754 26.5362C146.155 26.5362 144.51 26.3787 143.725 26.2912C143.602 26.278 143.479 26.3155 143.385 26.3961C143.291 26.4767 143.235 26.5918 143.23 26.7151L143.129 29.1995C143.12 29.4291 143.286 29.6265 143.516 29.6575C144.336 29.767 146.257 30.0006 147.749 30.0006C151.015 30.0006 153.602 28.1651 153.602 24.6113V24.2703V20.8968V10.68C153.602 10.4345 153.402 10.2359 153.157 10.2359H150.422Z" fill="#0D0D0D"/>
<path d="M140.598 10.5602C140.604 10.4364 140.557 10.3155 140.469 10.227C140.382 10.139 140.261 10.0924 140.137 10.0959C138.596 10.1511 137.722 10.4987 136.236 11.5094L136.02 10.5798C135.973 10.3782 135.793 10.2359 135.586 10.2359H132.882C132.636 10.2359 132.438 10.4346 132.438 10.6799V24.4785C132.438 24.7239 132.636 24.9228 132.882 24.9228H135.762C136.007 24.9228 136.207 24.7239 136.207 24.4785V15.0188C137.436 14.1533 138.391 13.7219 140.046 13.6628C140.278 13.6547 140.464 13.4709 140.475 13.2402L140.598 10.5602Z" fill="#0D0D0D"/>
<path d="M51.7674 10.0874C50.5611 10.0874 49.4626 10.4156 48.3238 11.1386V6.445C48.3238 6.19927 48.1247 6 47.8786 6H45C44.754 6 44.5547 6.19927 44.5547 6.445V10.2354V13.7007V24.4779C44.5547 24.7235 44.754 24.9222 45 24.9222H47.8786C48.1247 24.9222 48.3238 24.7235 48.3238 24.4779V14.5734C49.1562 13.9814 50.0259 13.5821 50.9509 13.5821C51.9607 13.5821 52.4801 14.3455 52.4801 15.743V24.4779C52.4801 24.7235 52.6795 24.9222 52.9255 24.9222H55.8046C56.0501 24.9222 56.2499 24.7235 56.2499 24.4779V15.2103C56.2499 12.1053 54.6031 10.0874 51.7674 10.0874Z" fill="#0D0D0D"/>
<path d="M42.6227 19.8036C42.6147 19.718 42.5785 19.6363 42.5154 19.5735C42.4386 19.4955 42.3314 19.4514 42.219 19.4514H39.2508C39.0522 19.4514 38.8833 19.5859 38.8495 19.7701C38.8389 19.8278 38.8115 19.955 38.8099 19.9633C38.6117 20.902 37.7772 21.606 36.7771 21.606C35.63 21.606 34.6993 20.6786 34.6993 19.5334V15.6548C34.6993 14.51 35.63 13.5826 36.7771 13.5826C37.6749 13.5826 38.4373 14.1506 38.7278 14.9457C38.7682 15.0792 38.8026 15.2177 38.8319 15.3612C38.8391 15.3967 38.8473 15.4318 38.8539 15.4679C38.8749 15.5828 38.9518 15.6737 39.0527 15.7293C39.1131 15.7625 39.1804 15.7863 39.2546 15.7863H42.219C42.294 15.7863 42.3658 15.7654 42.429 15.7293C42.46 15.7114 42.4898 15.691 42.515 15.6653C42.5864 15.5936 42.6238 15.4997 42.6236 15.4011C42.6236 15.3933 42.6231 15.3675 42.6227 15.3617C42.5668 11.8843 40.0027 10.0879 36.773 10.0879C36.7653 10.0879 36.7579 10.0888 36.7501 10.0888C33.4958 10.0972 30.9297 11.9316 30.9297 15.4769V19.6819C30.9297 23.2352 33.5164 25.0708 36.7809 25.0708C37.9119 25.0708 38.9573 24.8469 39.8445 24.4112C40.4196 24.129 40.9295 23.7596 41.3483 23.2981C42.0851 22.4858 42.5468 21.3974 42.6158 20.0404C42.618 20.0127 42.6244 19.8224 42.6227 19.8036Z" fill="#0D0D0D"/>
</svg>
