<svg width="109" height="36" viewBox="0 0 109 36" fill="none" xmlns="http://www.w3.org/2000/svg">
<path fill-rule="evenodd" clip-rule="evenodd" d="M18.1831 9.51196C19.9862 9.0101 21.7837 8.14376 23.1291 7.12041C18.92 13.0166 10.9763 13.6362 10.7 10.0278C6.71982 16.2829 8.91926 25.4313 18.1441 26.0509C22.0433 26.3144 26.057 24.9294 28.9905 22.3472C27.1958 26.9004 21.6553 28.9275 16.8852 28.4901C21.3009 30.1106 25.9119 29.6985 29.6716 25.9219C33.4313 22.1454 34.6789 15.5175 32.1166 10.782C31.4049 15.8202 18.239 23.5444 12.2268 18.809C17.29 20.0398 29.024 14.3735 28.7393 8.36525C28.6528 6.60173 26.9976 5.25877 23.9218 4.56626C21.5325 4.03356 19.0177 4.20738 16.7066 5.09896C10.0218 7.67274 10.9624 11.5054 18.1859 9.50915L18.1831 9.51196Z" fill="#0D0D0D"/>
<path fill-rule="evenodd" clip-rule="evenodd" d="M18.3974 2.23283C11.5702 3.54495 6.13577 9.28129 5.4938 16.5625C4.70949 25.352 11.2129 33.1575 19.966 33.9369C28.7191 34.7163 36.4953 28.1837 37.2684 19.3942C37.5615 16.0886 36.8162 12.9177 35.3146 10.2065C35.2504 10.613 35.1555 11.0084 35.0299 11.3981C38.2258 18.6933 35.0215 27.2922 27.7896 30.6706C20.4712 34.0883 11.7293 30.8781 8.32683 23.5268C4.93278 16.1727 8.12029 7.39161 15.4387 3.97391C19.2989 2.17114 23.5554 2.21881 27.2202 3.7356C24.6719 2.09825 21.2946 1.67489 18.3974 2.23283Z" fill="#0D0D0D"/>
<path d="M50.0975 22.3853C49.7347 22.5199 49.2602 22.6629 48.6657 22.8058C48.0656 22.9404 47.4711 23.0133 46.8849 23.0133C45.5172 23.0133 44.4399 22.6404 43.6639 21.8918C42.888 21.1433 42.5 20.1115 42.5 18.791C42.5 17.4704 42.888 16.5172 43.6723 15.7462C44.4566 14.9751 45.548 14.5938 46.9491 14.5938C47.4794 14.5938 47.9846 14.6415 48.4591 14.7368C48.942 14.8322 49.4723 15.0228 50.0641 15.3088V17.2069H49.8268C49.7235 17.1284 49.5812 17.0246 49.383 16.8817C49.1848 16.7471 49.0034 16.6265 48.822 16.5228C48.6154 16.4106 48.3698 16.3069 48.0935 16.2284C47.8088 16.1415 47.5157 16.1022 47.2003 16.1022C46.8291 16.1022 46.5053 16.1583 46.2039 16.2704C45.9024 16.3742 45.6345 16.5396 45.3972 16.7723C45.1684 16.9882 44.9869 17.2658 44.8585 17.5994C44.7246 17.933 44.6604 18.3227 44.6604 18.7601C44.6604 19.6489 44.8976 20.333 45.3721 20.8096C45.8382 21.2862 46.5444 21.5246 47.4599 21.5246C47.5464 21.5246 47.633 21.5161 47.7279 21.5161C47.8228 21.5077 47.9093 21.5077 47.9902 21.4993V19.9096H46.3769V18.3844H50.0948V22.3825L50.0975 22.3853ZM57.8681 19.8031C57.8681 20.804 57.5751 21.5918 56.9889 22.1722C56.4112 22.7442 55.5961 23.0385 54.5355 23.0385C53.4749 23.0385 52.6682 22.7442 52.0821 22.1722C51.5043 21.5918 51.2112 20.804 51.2112 19.8031C51.2112 18.8022 51.5043 18.0003 52.0904 17.4256C52.6766 16.8508 53.4916 16.5676 54.5355 16.5676C55.5794 16.5676 56.4195 16.8536 56.9973 17.434C57.5751 18.0143 57.8681 18.8022 57.8681 19.8031ZM55.4705 21.2806C55.5961 21.1208 55.691 20.9386 55.7552 20.7171C55.8194 20.5012 55.8501 20.2012 55.8501 19.8115C55.8501 19.461 55.8194 19.161 55.7552 18.9143C55.691 18.676 55.5961 18.4854 55.4873 18.3424C55.3673 18.191 55.2249 18.0872 55.0686 18.0256C54.9011 17.9695 54.7281 17.9386 54.5383 17.9386C54.3485 17.9386 54.1894 17.9639 54.0387 18.0115C53.8963 18.0592 53.754 18.1629 53.62 18.3143C53.5 18.4573 53.4051 18.648 53.3353 18.8947C53.2655 19.1414 53.232 19.4498 53.232 19.8171C53.232 20.1507 53.2627 20.4367 53.3186 20.6834C53.3827 20.9302 53.4693 21.1208 53.5949 21.2722C53.7065 21.4068 53.8405 21.5105 54.0052 21.575C54.1643 21.6479 54.3457 21.6788 54.5522 21.6788C54.7337 21.6788 54.9011 21.6479 55.0658 21.5918C55.2249 21.5274 55.3589 21.4236 55.4705 21.289V21.2806ZM65.8174 17.3162C65.8174 17.6751 65.7532 18.0312 65.6276 18.3732C65.502 18.7237 65.3178 19.0096 65.0889 19.248C64.7651 19.5648 64.4078 19.8031 64.0115 19.9713C63.6235 20.1311 63.1323 20.2096 62.5406 20.2096H61.251V22.8479H59.1688V14.7649H62.588C63.1016 14.7649 63.5286 14.8041 63.8859 14.8994C64.2348 14.9864 64.5418 15.1153 64.8181 15.2976C65.1419 15.5135 65.3875 15.7826 65.555 16.1162C65.7281 16.4499 65.8174 16.848 65.8174 17.3162ZM63.657 17.3639C63.657 17.134 63.5928 16.9433 63.4756 16.7751C63.3556 16.6153 63.2132 16.4975 63.0569 16.4331C62.8364 16.3461 62.6299 16.2985 62.4233 16.2901C62.2168 16.2817 61.9488 16.2733 61.6083 16.2733H61.251V18.69H61.8456C62.1945 18.69 62.4875 18.6648 62.708 18.6255C62.9369 18.5779 63.1267 18.491 63.2858 18.362C63.4114 18.2499 63.5063 18.1069 63.5705 17.9499C63.6263 17.79 63.657 17.591 63.657 17.3611V17.3639ZM72.9628 20.1704H68.5164C68.5471 20.647 68.723 21.0115 69.0551 21.2666C69.3956 21.5218 69.8869 21.6479 70.5344 21.6479C70.9447 21.6479 71.3411 21.5694 71.7291 21.418C72.1087 21.275 72.4185 21.1068 72.639 20.933H72.8539V22.5058C72.4185 22.6881 71.9998 22.8171 71.6118 22.8956C71.2239 22.9741 70.7884 23.0161 70.3223 23.0161C69.1026 23.0161 68.1703 22.747 67.5228 22.189C66.8752 21.6395 66.5487 20.8545 66.5487 19.8367C66.5487 18.819 66.8585 18.034 67.467 17.4536C68.0838 16.8648 68.9239 16.5704 69.9985 16.5704C70.9782 16.5704 71.7235 16.8172 72.2231 17.3162C72.7227 17.8153 72.9655 18.5414 72.9655 19.4863V20.1704H72.9628ZM71.0313 19.0237C71.0145 18.6115 70.9196 18.3087 70.7215 18.0928C70.5317 17.8938 70.2386 17.7816 69.8367 17.7816C69.4654 17.7816 69.1556 17.8854 68.91 18.076C68.6727 18.2751 68.5388 18.5835 68.5053 19.0209H71.0285L71.0313 19.0237ZM78.0343 22.7918C77.8278 22.8479 77.5989 22.8956 77.37 22.9264C77.1328 22.9572 76.8481 22.9656 76.5075 22.9656C75.7483 22.9656 75.1873 22.8142 74.8133 22.5058C74.4421 22.203 74.2607 21.6703 74.2607 20.9246V18.0788H73.4624V16.7527H74.2607V15.0116H76.2061V16.7527H78.0343V18.0788H76.2061V20.2405C76.2061 20.4564 76.2061 20.647 76.2145 20.804C76.2145 20.9638 76.2452 21.1068 76.301 21.233C76.3484 21.3591 76.4433 21.4629 76.5689 21.5358C76.6945 21.6087 76.8788 21.6479 77.13 21.6479C77.2249 21.6479 77.3588 21.6227 77.5263 21.5834C77.6938 21.5358 77.8026 21.4965 77.8668 21.4573H78.0343V22.7918ZM80.9539 22.8479H79V16.7527H80.9539V22.8479ZM81.0097 15.8779H78.9442V14.4004H81.0097V15.8779ZM86.4832 22.7918C86.2682 22.8479 86.0477 22.8956 85.8189 22.9264C85.5816 22.9572 85.2969 22.9656 84.9564 22.9656C84.1972 22.9656 83.6278 22.8142 83.2621 22.5058C82.8909 22.203 82.7095 21.6703 82.7095 20.9246V18.0788H81.9112V16.7527H82.7095V15.0116H84.6549V16.7527H86.4832V18.0788H84.6549V20.2405C84.6549 20.4564 84.6549 20.647 84.6633 20.804C84.6633 20.9638 84.694 21.1068 84.7498 21.233C84.7973 21.3591 84.8838 21.4629 85.0122 21.5358C85.1462 21.6087 85.3276 21.6479 85.5732 21.6479C85.6765 21.6479 85.8105 21.6227 85.978 21.5834C86.1371 21.5358 86.2543 21.4965 86.3185 21.4573H86.4859V22.7918H86.4832ZM89.3971 22.8479H87.4517V16.7527H89.3971V22.8479ZM89.4502 15.8779H87.3931V14.4004H89.4502V15.8779ZM97.2515 19.8031C97.2515 20.804 96.9584 21.5918 96.3806 22.1722C95.7945 22.7442 94.9795 23.0385 93.9272 23.0385C92.8749 23.0385 92.0515 22.7442 91.4738 22.1722C90.8876 21.5918 90.5945 20.804 90.5945 19.8031C90.5945 18.8022 90.8876 18.0003 91.4738 17.4256C92.0683 16.8536 92.8833 16.5676 93.9272 16.5676C94.9711 16.5676 95.8028 16.8536 96.3806 17.434C96.9668 18.0143 97.2515 18.8022 97.2515 19.8031ZM94.8622 21.2806C94.9878 21.1208 95.0827 20.9386 95.1469 20.7171C95.2111 20.5012 95.2418 20.2012 95.2418 19.8115C95.2418 19.461 95.2027 19.161 95.1385 18.9143C95.0744 18.676 94.9878 18.4854 94.8706 18.3424C94.7506 18.191 94.6166 18.0872 94.4519 18.0256C94.2928 17.9695 94.1198 17.9386 93.93 17.9386C93.7402 17.9386 93.5727 17.9639 93.4248 18.0115C93.2824 18.0592 93.1401 18.1629 93.0061 18.3143C92.8861 18.4573 92.7912 18.648 92.7214 18.8947C92.6516 19.1414 92.6181 19.4498 92.6181 19.8171C92.6181 20.1507 92.6488 20.4367 92.713 20.6834C92.7688 20.9302 92.8638 21.1208 92.981 21.2722C93.101 21.4068 93.235 21.5105 93.3913 21.575C93.5588 21.6479 93.7402 21.6788 93.9439 21.6788C94.117 21.6788 94.2928 21.6479 94.4491 21.5918C94.6082 21.5274 94.7506 21.4236 94.8594 21.289L94.8622 21.2806ZM104.539 22.8479H102.594V19.8283C102.594 19.5816 102.585 19.3349 102.555 19.0882C102.53 18.8498 102.49 18.6676 102.429 18.5555C102.356 18.4209 102.256 18.3171 102.114 18.2611C101.98 18.1966 101.782 18.1657 101.536 18.1657C101.354 18.1657 101.179 18.1966 100.997 18.2527C100.816 18.3087 100.618 18.4041 100.403 18.5302V22.8451H98.4572V16.7499H100.403V17.4256C100.752 17.1564 101.084 16.9489 101.399 16.806C101.715 16.6546 102.072 16.5845 102.46 16.5845C103.107 16.5845 103.624 16.7751 103.995 17.1648C104.358 17.5461 104.542 18.1181 104.542 18.8807V22.8451L104.539 22.8479Z" fill="#0D0D0D"/>
</svg>
