<svg width="122" height="36" viewBox="0 0 122 36" fill="none" xmlns="http://www.w3.org/2000/svg">
<g clip-path="url(#clip0_2501_1047)">
<path d="M39.1837 3.27734H38.7578V34.5747H39.1837V3.27734Z" fill="#0D0D0D"/>
<path d="M29.5004 34.1673L29.1547 33.8109C29.1096 33.7607 24.4752 28.9678 21.479 27.4019C21.1834 27.2463 20.8978 27.0857 20.5922 26.9101C19.2545 26.1472 17.8666 25.3643 15.9727 25.4195C13.9536 25.4897 12.3703 26.2175 11.3933 27.5274C10.732 28.4157 9.76501 30.634 9.75498 30.6541L9.67483 30.8398L9.48944 30.7645C9.37421 30.7193 6.70875 29.6604 5.38102 28.0293C3.64246 25.9013 4.35392 22.7394 4.38398 22.6089L4.42407 22.4383L4.59942 22.4483C4.60443 22.4483 4.7347 22.4533 4.95515 22.4533C5.65659 22.4533 7.40517 22.3931 8.5425 21.816C10.2861 20.9326 11.1529 20.3203 11.8944 18.8599C11.7391 18.4182 11.0226 16.4006 10.6168 15.4019C9.47441 12.5813 8.14168 10.5537 6.65363 9.3743C4.92008 8.00416 0.410842 6.19738 0.36074 6.17731L0 6.03678L0.310638 5.81093C0.435895 5.72059 3.42702 3.5625 5.857 3.5625C6.42316 3.5625 6.92419 3.68296 7.34004 3.91884C8.26694 4.44582 9.31409 5.13339 10.4264 5.86112C12.1148 6.97028 13.8584 8.11457 15.111 8.61144C16.3585 9.10328 17.8165 9.25886 18.9639 9.0029C19.8106 8.81721 20.3667 8.53615 20.9429 8.16978C21.5291 7.79838 21.8949 7.2965 22.2456 6.80968C22.8368 5.99663 23.443 5.15849 25.0263 5.15849H25.0864C26.845 5.17856 28.0124 6.05685 28.3631 7.61771V7.62273C28.6888 7.70303 28.9844 7.80843 29.2399 7.9339C30.0015 8.31533 30.1668 8.77706 30.1818 8.82725L30.272 9.1083H29.9564C29.8161 9.1083 29.1096 9.1083 28.6437 9.15347C28.5685 9.15849 28.4884 9.17354 28.4032 9.1886C28.3481 9.41445 28.2579 9.61018 28.1377 9.77078C27.822 10.1924 27.5314 10.3329 27.2508 10.4734C26.9552 10.619 26.6496 10.7645 26.2187 11.2714L26.2037 11.2865C26.1987 11.2915 25.357 12.1397 25.7177 14.4584C25.9482 15.949 26.0534 17.0029 25.9231 17.9464C26.4342 18.8548 26.8901 19.7984 27.306 20.6867C29.6959 25.7557 29.5205 33.6052 29.5205 33.6855L29.5004 34.1673Z" fill="#0D0D0D"/>
<path d="M31.0208 8.62208C30.7001 8.42634 30.3544 8.29084 30.0187 8.18544C30.0137 8.13024 30.0087 8.08005 29.9987 8.0399C29.7632 6.37365 28.6309 5.47026 26.9023 5.30464C24.302 5.0537 24.1868 7.1616 22.3279 8.13525C21.6265 8.50163 20.9802 8.74755 20.0633 8.87302C18.6454 9.06373 17.0772 8.69234 15.8447 8.08506C13.6902 7.01606 10.3334 3.99974 7.90339 2.34353C5.47341 0.687321 0.453125 3.74378 0.453125 3.74378C0.453125 3.74378 5.23793 6.04241 6.96647 7.7739C9.83234 10.6497 10.3534 13.4201 10.7492 14.6848C11.145 15.9496 11.5308 17.3598 11.5308 17.3598C11.5308 17.3598 10.5288 20.5669 7.83826 21.656C6.13978 22.3435 3.44926 21.9922 3.44926 21.9922C3.44926 21.9922 2.38207 25.3147 4.01542 27.6886C5.27801 29.5255 8.09378 30.9107 8.09378 30.9107C8.09378 30.9107 9.34134 28.592 10.153 27.6685C11.2703 26.3937 12.5379 25.9922 13.4698 25.8567C15.9749 25.4954 18.6554 26.6497 21.2507 28.3962C24.5675 30.6296 28.9666 35.9997 28.9666 35.9997C28.9666 35.9997 29.8634 27.6434 27.739 21.9822C26.5867 18.9056 26.5115 17.0637 26.5666 15.1114C26.6418 12.4113 27.4534 11.5631 27.4534 11.5631C28.4856 10.5342 28.9114 10.9408 29.6279 10.1378C29.7932 9.95709 29.8934 9.72622 29.9586 9.4803C30.1039 9.46524 30.2492 9.45018 30.3895 9.45018C30.9606 9.44516 31.8475 9.52045 31.8475 9.52045C31.8475 9.52045 31.7473 9.06373 31.0208 8.62208ZM23.3551 21.6108C21.4762 23.1666 21.1706 23.6986 19.2066 23.8291C17.2425 23.9646 15.2033 24.0048 14.2564 23.1967C14.2564 23.1967 13.2193 22.6848 13.1241 22.2984C13.0239 21.9169 12.8636 21.5355 13.1241 21.1039C13.3846 20.6723 15.3937 18.1127 16.3407 17.2344C17.2876 16.3561 19.2116 14.7501 19.8479 14.5142C20.4842 14.2833 21.6115 13.9671 21.6115 13.9671C21.6115 13.9671 22.353 14.188 23.0945 14.8103C23.836 15.4326 25.6698 18.0524 25.6698 18.0524C25.6698 18.0524 25.2339 20.06 23.3551 21.6108Z" fill="#0D0D0D"/>
<path d="M29.5004 34.1684L29.1547 33.8121C29.1096 33.7619 24.4752 28.969 21.479 27.4031C21.1834 27.2475 20.8978 27.0869 20.5922 26.9112C19.2545 26.1484 17.8666 25.3654 15.9727 25.4206C13.9536 25.4909 12.3703 26.2186 11.3933 27.5286C10.732 28.4169 9.76501 30.6352 9.75498 30.6553L9.67483 30.841L9.48944 30.7657C9.37421 30.7205 6.70875 29.6615 5.38102 28.0304C3.64246 25.9025 4.35392 22.7406 4.38398 22.6101L4.42407 22.4395L4.59942 22.4495C4.62448 22.4495 7.08451 22.5549 8.5425 21.8171C10.2861 20.9338 11.1529 20.3215 11.8944 18.861C11.7391 18.4194 11.0226 16.4018 10.6168 15.4031C9.47441 12.5825 8.14168 10.5549 6.65363 9.37547C4.92008 8.00533 0.410842 6.19856 0.36074 6.17849L0 6.03796L0.310638 5.81211C0.496018 5.6766 4.87499 2.52479 7.34004 3.92002C8.26694 4.44699 9.31409 5.13457 10.4264 5.8623C12.1148 6.97146 13.8584 8.11575 15.111 8.61261C16.3735 9.1145 17.8165 9.26004 18.9639 9.00408C19.8106 8.81839 20.3667 8.53733 20.9429 8.17096C21.5291 7.79956 21.8949 7.29768 22.2456 6.81086C22.8368 5.99781 23.443 5.15966 25.0263 5.15966C25.0463 5.15966 25.0664 5.15966 25.0814 5.15966L25.0764 5.58627C23.6635 5.57121 23.1625 6.2638 22.5813 7.06682C22.2055 7.58376 21.8147 8.12077 21.1634 8.53733C20.4369 8.99906 19.8256 9.25502 19.054 9.42566C17.8315 9.69668 16.2984 9.54109 14.9607 9.01412C13.668 8.5022 11.9044 7.34285 10.2009 6.22365C9.09864 5.50094 8.05651 4.81337 7.13963 4.29643C5.26078 3.23746 1.92895 5.25 0.881808 5.9426C2.00912 6.40935 5.40107 7.85979 6.90916 9.04925C8.45733 10.2738 9.83515 12.3617 11.0025 15.2475C11.4635 16.3817 12.3102 18.7908 12.3152 18.8109L12.3453 18.8962L12.3052 18.9765C11.5036 20.5976 10.5566 21.2801 8.72789 22.2036C7.39516 22.8761 5.37602 22.8962 4.75975 22.8861C4.63951 23.5587 4.31384 26.0731 5.70168 27.7695C6.76887 29.0743 8.8331 30.0329 9.45938 30.2989C9.7149 29.7318 10.4815 28.0605 11.0627 27.2776C12.1148 25.8623 13.8083 25.0743 15.9577 24.9991C17.9718 24.9288 19.4699 25.787 20.7926 26.5398C21.0932 26.7105 21.3788 26.8761 21.6694 27.0267C24.2697 28.3918 27.9423 31.9903 29.0996 33.1546C29.0946 31.3479 28.9193 25.0944 26.9252 20.8585C26.6195 20.2111 26.2388 19.4031 25.7929 18.57C25.6977 18.8912 25.5674 19.2023 25.392 19.4984C24.6555 20.7381 21.8798 24.728 17.075 24.2061C14.3193 23.905 13.3023 23.0869 12.9265 22.4495C12.701 22.063 12.6509 21.6164 12.7962 21.255C13.5828 19.3027 19.1342 13.4407 21.6744 13.8021C23.1825 14.0179 24.4551 15.4683 25.5574 17.3102C25.5874 16.4922 25.4672 15.5737 25.3018 14.5147C24.9261 12.0605 25.7979 11.0869 25.9081 10.9765C26.3941 10.4094 26.7498 10.2337 27.0655 10.0781C27.331 9.94762 27.5464 9.84222 27.802 9.50094L28.1326 9.76192C27.817 10.1835 27.5264 10.324 27.2458 10.4646C26.9502 10.6101 26.6446 10.7557 26.2137 11.2626L26.1987 11.2776C26.1937 11.2826 25.3519 12.1308 25.7127 14.4495C25.9181 15.7996 26.0634 16.9388 25.9231 17.9426C26.4141 18.8209 26.8701 19.7544 27.3009 20.6728C29.6908 25.7418 29.5155 33.5913 29.5155 33.6716L29.5004 34.1684ZM21.4289 14.2036C19.1693 14.2036 13.9686 19.4432 13.182 21.4056C13.1469 21.4959 13.0467 21.8121 13.2872 22.2186C13.5528 22.6703 14.3995 23.4683 17.1201 23.7695C21.6794 24.2713 24.3299 20.447 25.0313 19.2676C25.2618 18.8761 25.4071 18.4595 25.4872 18.0078C24.4501 16.191 23.1174 14.4294 21.6143 14.2136C21.5542 14.2086 21.489 14.2036 21.4289 14.2036Z" fill="#0D0D0D"/>
<path d="M29.5004 34.1673L29.1547 33.8109C29.1096 33.7607 24.4752 28.9678 21.479 27.4019C21.1834 27.2463 20.8978 27.0857 20.5922 26.9101C19.2545 26.1472 17.8666 25.3643 15.9727 25.4195C13.9536 25.4897 12.3703 26.2175 11.3933 27.5274C10.732 28.4157 9.76501 30.634 9.75498 30.6541L9.67483 30.8398L9.48944 30.7645C9.37421 30.7193 6.70875 29.6604 5.38102 28.0293C3.64246 25.9013 4.35392 22.7394 4.38398 22.6089L4.42407 22.4383L4.59942 22.4483C4.60443 22.4483 4.7347 22.4533 4.95515 22.4533C5.65659 22.4533 7.40517 22.3931 8.5425 21.816C10.2861 20.9326 11.1529 20.3203 11.8944 18.8599C11.7391 18.4182 11.0226 16.4006 10.6168 15.4019C9.47441 12.5813 8.14168 10.5537 6.65363 9.3743C4.92008 8.00416 0.410842 6.19738 0.36074 6.17731L0 6.03678L0.310638 5.81093C0.435895 5.72059 3.42702 3.5625 5.857 3.5625C6.42316 3.5625 6.92419 3.68296 7.34004 3.91884C8.26694 4.44582 9.31409 5.13339 10.4264 5.86112C12.1148 6.97028 13.8584 8.11457 15.111 8.61144C16.3585 9.10328 17.8165 9.25886 18.9639 9.0029C19.8106 8.81721 20.3667 8.53615 20.9429 8.16978C21.5291 7.79838 21.8949 7.2965 22.2456 6.80968C22.8368 5.99663 23.443 5.15849 25.0263 5.15849H25.0864C26.845 5.17856 28.0124 6.05685 28.3631 7.61771V7.62273C28.6888 7.70303 28.9844 7.80843 29.2399 7.9339C30.0015 8.31533 30.1668 8.77706 30.1818 8.82725L30.272 9.1083H29.9564C29.8161 9.1083 29.1096 9.1083 28.6437 9.15347C28.5685 9.15849 28.4884 9.17354 28.4032 9.1886C28.3481 9.41445 28.2579 9.61018 28.1377 9.77078C27.822 10.1924 27.5314 10.3329 27.2508 10.4734C26.9552 10.619 26.6496 10.7645 26.2187 11.2714L26.2037 11.2865C26.1987 11.2915 25.357 12.1397 25.7177 14.4584C25.9482 15.949 26.0534 17.0029 25.9231 17.9464C26.4342 18.8548 26.8901 19.7984 27.306 20.6867C29.6959 25.7557 29.5205 33.6052 29.5205 33.6855L29.5004 34.1673ZM16.1832 24.9879C18.082 24.9879 19.52 25.8109 20.7926 26.5336C21.0932 26.7043 21.3788 26.8699 21.6694 27.0205C24.2697 28.3856 27.9423 31.9841 29.0996 33.1485C29.0946 31.3417 28.9193 25.0882 26.9252 20.8523C26.4993 19.954 26.0384 18.9954 25.5223 18.0769L25.4872 18.0117L25.4972 17.9364C25.6375 17.033 25.5323 15.9941 25.3018 14.5086C24.9261 12.0543 25.7979 11.0857 25.9081 10.9703C26.3941 10.4032 26.7498 10.2275 27.0655 10.0719C27.331 9.94142 27.5464 9.83603 27.802 9.49475C27.9072 9.35422 27.9823 9.17354 28.0174 8.95272L28.0425 8.81219L28.1828 8.78207C28.3331 8.75196 28.4733 8.72687 28.6036 8.71683C28.8992 8.68672 29.29 8.67668 29.5806 8.67166C29.4704 8.56125 29.3 8.43076 29.0545 8.30529C28.794 8.1748 28.4884 8.0694 28.1427 7.99914L28.0074 7.96903L27.9823 7.83352C27.9723 7.78835 27.9623 7.74318 27.9573 7.70303C27.5665 5.96652 26.1786 5.58508 25.0814 5.57003H25.0263C23.6585 5.57003 23.1575 6.25761 22.5813 7.05058C22.2055 7.56752 21.8147 8.10454 21.1634 8.5211C20.4369 8.98283 19.8256 9.23879 19.054 9.40943C17.8315 9.68044 16.2834 9.51984 14.9607 8.99788C13.668 8.48596 11.9044 7.32662 10.2009 6.20742C9.09864 5.48471 8.05651 4.79713 7.13963 4.28019C6.7839 4.07944 6.35803 3.97906 5.86201 3.97906C4.00821 3.97906 1.71351 5.3743 0.881808 5.92637C2.00912 6.39312 5.40107 7.84355 6.90916 9.03302C8.45733 10.2576 9.83515 12.3454 11.0025 15.2313C11.4635 16.3655 12.3102 18.7745 12.3152 18.7946L12.3453 18.8799L12.3052 18.9602C11.5036 20.5813 10.5566 21.2639 8.72789 22.1873C7.51039 22.8047 5.68164 22.8699 4.95515 22.8699C4.88 22.8699 4.81487 22.8699 4.75975 22.8699C4.63951 23.5374 4.31384 26.0569 5.70168 27.7532C6.76887 29.0581 8.8331 30.0167 9.45938 30.2827C9.7149 29.7156 10.4815 28.0443 11.0627 27.2614C12.1148 25.8461 13.8083 25.0581 15.9577 24.9828C16.0329 24.9878 16.108 24.9879 16.1832 24.9879Z" fill="#0D0D0D"/>
<path d="M49.6268 15.1523C47.5075 15.1523 46.4453 16.2665 46.4453 18.4999C46.4553 20.7283 47.5125 21.8374 49.6268 21.8374C51.7462 21.8374 52.8084 20.7232 52.8084 18.4999C52.8084 16.2665 51.7462 15.1523 49.6268 15.1523ZM49.6268 20.8889C48.2891 20.8889 47.6227 20.0858 47.6227 18.4748C47.6227 16.8989 48.2891 16.1109 49.6268 16.1109C50.9646 16.1109 51.6309 16.8989 51.6309 18.4748C51.6309 20.0808 50.9596 20.8889 49.6268 20.8889Z" fill="#0D0D0D"/>
<path d="M57.0738 15.1523C56.1268 15.1523 55.2099 15.2427 54.3281 15.4284V24.2665H55.5055V21.5262C56.0066 21.737 56.5226 21.8424 57.0587 21.8424C59.2131 21.8424 60.2903 20.673 60.2903 18.3293C60.2903 16.2113 59.2182 15.1523 57.0738 15.1523ZM57.0487 20.8236C56.4825 20.8236 55.9665 20.7082 55.5055 20.4773V16.2866C55.9515 16.1862 56.4725 16.136 57.0637 16.136C58.4416 16.136 59.133 16.8638 59.133 18.3192C59.133 19.9905 58.4365 20.8236 57.0487 20.8236Z" fill="#0D0D0D"/>
<path d="M64.6937 15.1523C62.5594 15.1523 61.4922 16.2414 61.4922 18.4196C61.4922 20.6981 62.6195 21.8424 64.8691 21.8424C65.7108 21.8424 66.4273 21.7772 67.0185 21.6517V20.6981C66.4273 20.8236 65.8411 20.8889 65.2499 20.8889C63.5264 20.8889 62.6696 20.2063 62.6696 18.8362H67.1688C67.5646 16.382 66.7379 15.1523 64.6937 15.1523ZM62.6696 17.8575C62.7448 16.6831 63.356 16.1009 64.5034 16.1009C65.6207 16.1009 66.1517 16.6881 66.0916 17.8575H62.6696Z" fill="#0D0D0D"/>
<path d="M72.3974 15.1523C71.5807 15.1523 70.764 15.4384 69.9524 16.0055L69.742 15.1523H68.9453V21.8424H70.1227V16.9792C70.729 16.4121 71.3703 16.131 72.0417 16.131C73.0287 16.131 73.5247 16.6279 73.5247 17.6216V21.8374H74.7021V17.6367C74.7071 15.9855 73.9355 15.1523 72.3974 15.1523Z" fill="#0D0D0D"/>
<path d="M80.4326 12.7324H76.5547V21.8416H77.7321V13.7061H80.3274C81.2944 13.7061 81.7754 14.1277 81.7754 14.9658C81.7754 16.0298 80.9086 16.6973 79.165 16.9733L79.4055 17.9671C81.8205 17.5756 83.0229 16.5568 83.0229 14.9156C83.028 13.4602 82.1662 12.7324 80.4326 12.7324Z" fill="#0D0D0D"/>
<path d="M87.2719 15.1523C85.1375 15.1523 84.0703 16.2414 84.0703 18.4196C84.0703 20.6981 85.1976 21.8424 87.4472 21.8424C88.289 21.8424 89.0054 21.7772 89.5966 21.6517V20.6981C89.0054 20.8236 88.4192 20.8889 87.828 20.8889C86.1045 20.8889 85.2477 20.2063 85.2477 18.8362H89.747C90.1428 16.382 89.3161 15.1523 87.2719 15.1523ZM85.2477 17.8575C85.3229 16.6831 85.9341 16.1009 87.0815 16.1009C88.1988 16.1009 88.7299 16.6881 88.6697 17.8575H85.2477Z" fill="#0D0D0D"/>
<path d="M92.2678 14.0684H91.5312V20.0408C91.5312 21.2453 92.0924 21.8425 93.2097 21.8425H94.0765V20.8889H93.5153C92.9792 20.8889 92.7087 20.5778 92.7087 19.9504V16.106H94.0765V15.1524H92.5233L92.2678 14.0684Z" fill="#0D0D0D"/>
<path d="M96.7712 12.7324H95.5938V13.686H96.7712V12.7324Z" fill="#0D0D0D"/>
<path d="M96.7712 15.1523H95.5938V21.8424H96.7712V15.1523Z" fill="#0D0D0D"/>
<path d="M99.3537 14.0684H98.6172V20.0408C98.6172 21.2453 99.1783 21.8425 100.296 21.8425H101.162V20.8889H100.601C100.065 20.8889 99.7946 20.5778 99.7946 19.9504V16.106H101.162V15.1524H99.6092L99.3537 14.0684Z" fill="#0D0D0D"/>
<path d="M103.865 12.7324H102.688V13.686H103.865V12.7324Z" fill="#0D0D0D"/>
<path d="M103.865 15.1523H102.688V21.8424H103.865V15.1523Z" fill="#0D0D0D"/>
<path d="M108.564 15.1523C106.445 15.1523 105.383 16.2665 105.383 18.4999C105.393 20.7283 106.45 21.8374 108.564 21.8374C110.684 21.8374 111.746 20.7232 111.746 18.4999C111.746 16.2665 110.684 15.1523 108.564 15.1523ZM108.564 20.8889C107.227 20.8889 106.56 20.0858 106.56 18.4748C106.56 16.8989 107.227 16.1109 108.564 16.1109C109.902 16.1109 110.568 16.8989 110.568 18.4748C110.568 20.0808 109.902 20.8889 108.564 20.8889Z" fill="#0D0D0D"/>
<path d="M116.718 15.1523C115.901 15.1523 115.084 15.4384 114.273 16.0055L114.062 15.1523H113.266V21.8424H114.443V16.9792C115.049 16.4121 115.691 16.131 116.362 16.131C117.349 16.131 117.845 16.6279 117.845 17.6216V21.8374H119.022V17.6367C119.027 15.9855 118.261 15.1523 116.718 15.1523Z" fill="#0D0D0D"/>
</g>
<defs>
<clipPath id="clip0_2501_1047">
<rect width="122" height="36" fill="white"/>
</clipPath>
</defs>
</svg>
